<svg width="115" height="115" viewBox="0 0 115 115" fill="none" xmlns="http://www.w3.org/2000/svg">
<path fill-rule="evenodd" clip-rule="evenodd" d="M57.2192 114.45L3.25106 114.45C1.49546 114.45 -4.00543e-05 112.955 -4.00543e-05 111.199L-4.19617e-05 57.231C-4.3869e-05 41.4307 6.43713 27.1259 16.7756 16.7874C27.3742 6.18885 42.1342 -0.313347 58.3896 0.0117607C88.8199 0.596958 113.723 25.4353 114.439 55.8656C115.154 88.1164 89.275 114.45 57.2192 114.45ZM31.2702 64.184H26.9747L30.5154 68.84C29.9102 69.0002 29.2669 69.0803 28.5855 69.0803C27.1622 69.0803 25.9051 68.7309 24.8142 68.032C23.7233 67.3246 22.8667 66.2891 22.2446 64.9255C21.6309 63.5533 21.3241 61.8744 21.3241 59.8886C21.3241 57.9028 21.6309 56.2281 22.2446 54.8644C22.8667 53.4923 23.7233 52.4567 24.8142 51.7579C25.9051 51.0505 27.1622 50.6968 28.5855 50.6968C30.0088 50.6968 31.2659 51.0505 32.3568 51.7579C33.4477 52.4567 34.3 53.4923 34.9136 54.8644C35.5358 56.2281 35.8469 57.9028 35.8469 59.8886C35.8469 61.8744 35.5358 63.5533 34.9136 64.9255C34.5343 65.7683 34.0639 66.4858 33.5023 67.0779L31.2702 64.184ZM36.3619 70.5707C37.4284 69.6426 38.3178 68.4981 39.0301 67.1371C40.0869 65.1258 40.6153 62.7096 40.6153 59.8886C40.6153 57.0675 40.0869 54.6556 39.0301 52.6528C37.9818 50.6414 36.55 49.103 34.7346 48.0377C32.9278 46.9724 30.8781 46.4397 28.5855 46.4397C26.2929 46.4397 24.2389 46.9724 22.4236 48.0377C20.6167 49.103 19.1849 50.6414 18.1281 52.6528C17.0798 54.6556 16.5557 57.0675 16.5557 59.8886C16.5557 62.7011 17.0798 65.113 18.1281 67.1244C19.1849 69.1272 20.6167 70.6656 22.4236 71.7394C24.2389 72.8048 26.2929 73.3374 28.5855 73.3374C30.2602 73.3374 31.8053 73.0532 33.2207 72.4847L35.3866 75.2295H39.9889L36.3619 70.5707ZM49.5578 72.9795V61.4738C49.5578 60.5278 49.7325 59.7224 50.0819 59.0576C50.4399 58.3928 50.93 57.8857 51.5521 57.5363C52.1828 57.1783 52.903 56.9994 53.7126 56.9994C54.9058 56.9994 55.839 57.3701 56.5123 58.1116C57.1942 58.8531 57.5351 59.88 57.5351 61.1925V72.9795H62.1629V60.4766C62.1714 58.9084 61.8944 57.5746 61.3319 56.4752C60.778 55.3758 59.9939 54.5363 58.9797 53.9567C57.974 53.3772 56.7936 53.0874 55.4385 53.0874C53.9726 53.0874 52.741 53.4113 51.7439 54.059C50.7552 54.7067 50.0351 55.5803 49.5834 56.6798H49.3532V53.3431H44.93V72.9795H49.5578ZM65.3717 72.9795H70.4342L72.5994 66.5235H82.4426L84.6118 72.9795H89.6743L80.4442 46.7977H74.589L65.3717 72.9795ZM81.1626 62.7138L77.6189 52.167H77.4143L73.8771 62.7138H81.1626ZM93.7748 72.4425C94.3287 72.988 94.9935 73.2607 95.7691 73.2607C96.2719 73.2607 96.7322 73.1371 97.1498 72.89C97.5759 72.6343 97.9168 72.2934 98.1725 71.8673C98.4367 71.4411 98.5731 70.9681 98.5816 70.4482C98.5731 69.6812 98.2876 69.0249 97.7251 68.4795C97.1711 67.934 96.5191 67.6613 95.7691 67.6613C94.9935 67.6613 94.3287 67.934 93.7748 68.4795C93.2208 69.0249 92.9481 69.6812 92.9566 70.4482C92.9481 71.2323 93.2208 71.8971 93.7748 72.4425Z" fill="white"/>
</svg>
