<svg width="115" height="115" viewBox="0 0 115 115" fill="none" xmlns="http://www.w3.org/2000/svg">
<path fill-rule="evenodd" clip-rule="evenodd" d="M57.2193 114.45L3.2511 114.45C1.49551 114.45 2.43577e-06 112.955 2.35903e-06 111.199L0 57.2309C-6.90648e-07 41.4306 6.43717 27.1258 16.7757 16.7873C27.3742 6.18873 42.1342 -0.313461 58.3897 0.0116481C88.8199 0.596844 113.723 25.4352 114.439 55.8655C115.154 88.1163 89.2751 114.45 57.2193 114.45ZM31.2702 64.1839H26.9747L30.5155 68.8399C29.9103 69.0001 29.2669 69.0802 28.5855 69.0802C27.1622 69.0802 25.9051 68.7308 24.8142 68.0319C23.7233 67.3245 22.8668 66.289 22.2446 64.9254C21.631 63.5532 21.3242 61.8742 21.3242 59.8884C21.3242 57.9026 21.631 56.2279 22.2446 54.8643C22.8668 53.4921 23.7233 52.4566 24.8142 51.7578C25.9051 51.0504 27.1622 50.6967 28.5855 50.6967C30.0088 50.6967 31.2659 51.0504 32.3568 51.7578C33.4478 52.4566 34.3 53.4921 34.9137 54.8643C35.5358 56.2279 35.8469 57.9026 35.8469 59.8884C35.8469 61.8742 35.5358 63.5532 34.9137 64.9254C34.5344 65.7682 34.0639 66.4857 33.5023 67.0778L31.2702 64.1839ZM36.3619 70.5706C37.4284 69.6425 38.3178 68.498 39.0301 67.137C40.087 65.1257 40.6154 62.7095 40.6154 59.8884C40.6154 57.0674 40.087 54.6555 39.0301 52.6526C37.9818 50.6413 36.55 49.1029 34.7347 48.0376C32.9279 46.9723 30.8782 46.4396 28.5855 46.4396C26.2929 46.4396 24.2389 46.9723 22.4236 48.0376C20.6168 49.1029 19.185 50.6413 18.1282 52.6526C17.0799 54.6555 16.5557 57.0674 16.5557 59.8884C16.5557 62.7009 17.0799 65.1129 18.1282 67.1242C19.185 69.1271 20.6168 70.6654 22.4236 71.7393C24.2389 72.8046 26.2929 73.3373 28.5855 73.3373C30.2602 73.3373 31.8053 73.0531 33.2208 72.4846L35.3867 75.2294H39.9889L36.3619 70.5706ZM49.5578 72.9794V61.4737C49.5578 60.5276 49.7326 59.7223 50.082 59.0575C50.4399 58.3927 50.93 57.8856 51.5522 57.5362C52.1828 57.1782 52.903 56.9992 53.7127 56.9992C54.9059 56.9992 55.8391 57.37 56.5124 58.1115C57.1942 58.8529 57.5351 59.8799 57.5351 61.1924V72.9794H62.163V60.4765C62.1715 58.9083 61.8945 57.5745 61.332 56.4751C60.778 55.3757 59.9939 54.5362 58.9797 53.9566C57.974 53.3771 56.7936 53.0873 55.4385 53.0873C53.9726 53.0873 52.7411 53.4112 51.7439 54.0589C50.7553 54.7066 50.0351 55.5802 49.5834 56.6796H49.3533V53.343H44.93V72.9794H49.5578ZM65.3718 72.9794H70.4343L72.5995 66.5234H82.4426L84.6118 72.9794H89.6743L80.4442 46.7975H74.5891L65.3718 72.9794ZM81.1626 62.7137L77.6189 52.1669H77.4144L73.8772 62.7137H81.1626ZM93.7748 72.4424C94.3288 72.9879 94.9936 73.2606 95.7691 73.2606C96.272 73.2606 96.7322 73.137 97.1498 72.8899C97.576 72.6342 97.9169 72.2933 98.1725 71.8671C98.4367 71.441 98.5731 70.968 98.5816 70.4481C98.5731 69.6811 98.2876 69.0248 97.7251 68.4794C97.1711 67.9339 96.5191 67.6612 95.7691 67.6612C94.9936 67.6612 94.3288 67.9339 93.7748 68.4794C93.2208 69.0248 92.9481 69.6811 92.9566 70.4481C92.9481 71.2322 93.2208 71.897 93.7748 72.4424Z" fill="black"/>
</svg>
